<?xml version="1.0"?>
<svg xmlns="http://www.w3.org/2000/svg" xmlns:xlink="http://www.w3.org/1999/xlink" version="1.1" id="Capa_1" x="0px" y="0px" viewBox="0 0 15.381 15.381" style="enable-background:new 0 0 15.381 15.381;" xml:space="preserve" width="512px" height="512px"><g><g>
	<g>
		<path d="M12.016,15.381h-8.65c-1.558,0-2.826-1.268-2.826-2.825v-9.73C0.54,1.268,1.808,0,3.366,0h8.65    c1.558,0,2.825,1.268,2.825,2.826v9.73C14.841,14.114,13.574,15.381,12.016,15.381z M3.366,1.305    c-0.839,0-1.521,0.683-1.521,1.521v9.73c0,0.838,0.683,1.521,1.521,1.521h8.65c0.839,0,1.521-0.684,1.521-1.521v-9.73    c0-0.839-0.683-1.521-1.521-1.521C12.016,1.305,3.366,1.305,3.366,1.305z" data-original="#030104" class="active-path" data-old_color="#030104" fill="#612F74"/>
	</g>
</g></g> </svg>
